<?xml version="1.0" standalone="no"?>
<svg xmlns:xlink="http://www.w3.org/1999/xlink" id="wave" style="transform:rotate(180deg); transition: 0.3s" viewBox="0 0 1440 140" version="1.1" xmlns="http://www.w3.org/2000/svg"><defs><linearGradient id="sw-gradient-0" x1="0" x2="0" y1="1" y2="0"><stop stop-color="rgba(255, 249, 234, 1)" offset="0%"/><stop stop-color="rgba(255, 249, 234, 1)" offset="100%"/></linearGradient></defs><path style="transform:translate(0, 0px); opacity:1" fill="url(#sw-gradient-0)" d="M0,56L26.7,49C53.3,42,107,28,160,37.3C213.3,47,267,79,320,84C373.3,89,427,65,480,46.7C533.3,28,587,14,640,16.3C693.3,19,747,37,800,58.3C853.3,79,907,103,960,114.3C1013.3,126,1067,126,1120,105C1173.3,84,1227,42,1280,30.3C1333.3,19,1387,37,1440,42C1493.3,47,1547,37,1600,30.3C1653.3,23,1707,19,1760,23.3C1813.3,28,1867,42,1920,58.3C1973.3,75,2027,93,2080,84C2133.3,75,2187,37,2240,37.3C2293.3,37,2347,75,2400,77C2453.3,79,2507,47,2560,44.3C2613.3,42,2667,70,2720,81.7C2773.3,93,2827,89,2880,91C2933.3,93,2987,103,3040,88.7C3093.3,75,3147,37,3200,23.3C3253.3,9,3307,19,3360,35C3413.3,51,3467,75,3520,72.3C3573.3,70,3627,42,3680,32.7C3733.3,23,3787,33,3813,37.3L3840,42L3840,140L3813.3,140C3786.7,140,3733,140,3680,140C3626.7,140,3573,140,3520,140C3466.7,140,3413,140,3360,140C3306.7,140,3253,140,3200,140C3146.7,140,3093,140,3040,140C2986.7,140,2933,140,2880,140C2826.7,140,2773,140,2720,140C2666.7,140,2613,140,2560,140C2506.7,140,2453,140,2400,140C2346.7,140,2293,140,2240,140C2186.7,140,2133,140,2080,140C2026.7,140,1973,140,1920,140C1866.7,140,1813,140,1760,140C1706.7,140,1653,140,1600,140C1546.7,140,1493,140,1440,140C1386.7,140,1333,140,1280,140C1226.7,140,1173,140,1120,140C1066.7,140,1013,140,960,140C906.7,140,853,140,800,140C746.7,140,693,140,640,140C586.7,140,533,140,480,140C426.7,140,373,140,320,140C266.7,140,213,140,160,140C106.7,140,53,140,27,140L0,140Z"/></svg>