<?xml version="1.0" standalone="no"?>
<svg xmlns:xlink="http://www.w3.org/1999/xlink" id="wave" style="transform:rotate(0deg); transition: 0.3s" viewBox="0 0 1440 100" version="1.1" xmlns="http://www.w3.org/2000/svg"><defs><linearGradient id="sw-gradient-0" x1="0" x2="0" y1="1" y2="0"><stop stop-color="rgba(255, 249, 234, 1)" offset="0%"/><stop stop-color="rgba(255, 249, 234, 1)" offset="100%"/></linearGradient></defs><path style="transform:translate(0, 0px); opacity:1" fill="url(#sw-gradient-0)" d="M0,30L26.7,25C53.3,20,107,10,160,10C213.3,10,267,20,320,21.7C373.3,23,427,17,480,18.3C533.3,20,587,30,640,33.3C693.3,37,747,33,800,28.3C853.3,23,907,17,960,16.7C1013.3,17,1067,23,1120,28.3C1173.3,33,1227,37,1280,36.7C1333.3,37,1387,33,1440,33.3C1493.3,33,1547,37,1600,35C1653.3,33,1707,27,1760,35C1813.3,43,1867,67,1920,75C1973.3,83,2027,77,2080,73.3C2133.3,70,2187,70,2240,66.7C2293.3,63,2347,57,2400,55C2453.3,53,2507,57,2560,55C2613.3,53,2667,47,2720,45C2773.3,43,2827,47,2880,43.3C2933.3,40,2987,30,3040,31.7C3093.3,33,3147,47,3200,51.7C3253.3,57,3307,53,3360,45C3413.3,37,3467,23,3520,20C3573.3,17,3627,23,3680,28.3C3733.3,33,3787,37,3813,38.3L3840,40L3840,100L3813.3,100C3786.7,100,3733,100,3680,100C3626.7,100,3573,100,3520,100C3466.7,100,3413,100,3360,100C3306.7,100,3253,100,3200,100C3146.7,100,3093,100,3040,100C2986.7,100,2933,100,2880,100C2826.7,100,2773,100,2720,100C2666.7,100,2613,100,2560,100C2506.7,100,2453,100,2400,100C2346.7,100,2293,100,2240,100C2186.7,100,2133,100,2080,100C2026.7,100,1973,100,1920,100C1866.7,100,1813,100,1760,100C1706.7,100,1653,100,1600,100C1546.7,100,1493,100,1440,100C1386.7,100,1333,100,1280,100C1226.7,100,1173,100,1120,100C1066.7,100,1013,100,960,100C906.7,100,853,100,800,100C746.7,100,693,100,640,100C586.7,100,533,100,480,100C426.7,100,373,100,320,100C266.7,100,213,100,160,100C106.7,100,53,100,27,100L0,100Z"/></svg>